<svg width="100%" height="100%" id="svg" viewBox="0 0 1440 490" xmlns="http://www.w3.org/2000/svg" class="transition duration-300 ease-in-out delay-150"><defs><linearGradient id="gradient" x1="17%" y1="13%" x2="83%" y2="87%"><stop offset="5%" stop-color="#00d084"></stop><stop offset="95%" stop-color="#7bdcb5"></stop></linearGradient></defs><path d="M 0,500 C 0,500 0,166 0,166 C 130.2666666666667,133.60000000000002 260.5333333333334,101.20000000000002 442,110 C 623.4666666666666,118.79999999999998 856.1333333333334,168.79999999999998 1031,185 C 1205.8666666666666,201.20000000000002 1322.9333333333334,183.60000000000002 1440,166 C 1440,166 1440,500 1440,500 Z" stroke="none" stroke-width="0" fill="url(#gradient)" fill-opacity="0.53" class="transition-all duration-300 ease-in-out delay-150 path-0"></path><defs><linearGradient id="gradient" x1="17%" y1="13%" x2="83%" y2="87%"><stop offset="5%" stop-color="#00d084"></stop><stop offset="95%" stop-color="#7bdcb5"></stop></linearGradient></defs><path d="M 0,500 C 0,500 0,333 0,333 C 138.93333333333334,302.06666666666666 277.8666666666667,271.1333333333333 450,287 C 622.1333333333333,302.8666666666667 827.4666666666667,365.53333333333336 998,381 C 1168.5333333333333,396.46666666666664 1304.2666666666667,364.73333333333335 1440,333 C 1440,333 1440,500 1440,500 Z" stroke="none" stroke-width="0" fill="url(#gradient)" fill-opacity="1" class="transition-all duration-300 ease-in-out delay-150 path-1"></path></svg>